<mxfile host="app.diagrams.net" agent="Mozilla/5.0 (Windows NT 10.0; Win64; x64) AppleWebKit/537.36 (KHTML, like Gecko) Chrome/131.0.0.0 Safari/537.36" version="25.0.1">
  <diagram name="Page-1" id="Kgm79ZkPklnocEpIchMp">
    <mxGraphModel dx="1425" dy="1198" grid="1" gridSize="10" guides="1" tooltips="1" connect="1" arrows="1" fold="1" page="1" pageScale="1" pageWidth="827" pageHeight="1169" math="0" shadow="0">
      <root>
        <mxCell id="0" />
        <mxCell id="1" parent="0" />
        <mxCell id="GVw4IOrGM6bfQ1GFjOSW-1" value="&lt;font style=&quot;font-size: 30px;&quot;&gt;+/-&lt;/font&gt;" style="ellipse;whiteSpace=wrap;html=1;aspect=fixed;" vertex="1" parent="1">
          <mxGeometry x="877" y="520" width="80" height="80" as="geometry" />
        </mxCell>
        <mxCell id="GVw4IOrGM6bfQ1GFjOSW-2" value="&lt;font style=&quot;font-size: 30px;&quot;&gt;-&lt;/font&gt;" style="ellipse;whiteSpace=wrap;html=1;aspect=fixed;" vertex="1" parent="1">
          <mxGeometry x="1197" y="360" width="80" height="80" as="geometry" />
        </mxCell>
        <mxCell id="GVw4IOrGM6bfQ1GFjOSW-3" value="&lt;font style=&quot;font-size: 30px;&quot;&gt;*&lt;/font&gt;" style="ellipse;whiteSpace=wrap;html=1;aspect=fixed;" vertex="1" parent="1">
          <mxGeometry x="1097" y="265" width="80" height="80" as="geometry" />
        </mxCell>
        <mxCell id="GVw4IOrGM6bfQ1GFjOSW-5" value="&lt;font style=&quot;font-size: 30px;&quot;&gt;a&lt;/font&gt;" style="rounded=0;whiteSpace=wrap;html=1;" vertex="1" parent="1">
          <mxGeometry x="1327" y="195" width="40" height="30" as="geometry" />
        </mxCell>
        <mxCell id="GVw4IOrGM6bfQ1GFjOSW-6" value="&lt;font style=&quot;font-size: 30px;&quot;&gt;b&lt;/font&gt;" style="rounded=0;whiteSpace=wrap;html=1;" vertex="1" parent="1">
          <mxGeometry x="1117" y="195" width="40" height="30" as="geometry" />
        </mxCell>
        <mxCell id="GVw4IOrGM6bfQ1GFjOSW-7" value="&lt;font style=&quot;font-size: 30px;&quot;&gt;c&lt;/font&gt;" style="rounded=0;whiteSpace=wrap;html=1;" vertex="1" parent="1">
          <mxGeometry x="1437" y="195" width="40" height="30" as="geometry" />
        </mxCell>
        <mxCell id="GVw4IOrGM6bfQ1GFjOSW-12" value="" style="endArrow=classic;html=1;rounded=0;exitX=0;exitY=1;exitDx=0;exitDy=0;entryX=0.124;entryY=0.169;entryDx=0;entryDy=0;entryPerimeter=0;" edge="1" parent="1" source="GVw4IOrGM6bfQ1GFjOSW-6" target="GVw4IOrGM6bfQ1GFjOSW-3">
          <mxGeometry width="50" height="50" relative="1" as="geometry">
            <mxPoint x="1057" y="215" as="sourcePoint" />
            <mxPoint x="1107" y="165" as="targetPoint" />
            <Array as="points">
              <mxPoint x="1107" y="225" />
            </Array>
          </mxGeometry>
        </mxCell>
        <mxCell id="GVw4IOrGM6bfQ1GFjOSW-13" value="" style="endArrow=classic;html=1;rounded=0;exitX=1;exitY=1;exitDx=0;exitDy=0;entryX=0.878;entryY=0.162;entryDx=0;entryDy=0;entryPerimeter=0;" edge="1" parent="1" source="GVw4IOrGM6bfQ1GFjOSW-6" target="GVw4IOrGM6bfQ1GFjOSW-3">
          <mxGeometry width="50" height="50" relative="1" as="geometry">
            <mxPoint x="1177" y="73" as="sourcePoint" />
            <mxPoint x="1207" y="235" as="targetPoint" />
            <Array as="points">
              <mxPoint x="1167" y="225" />
            </Array>
          </mxGeometry>
        </mxCell>
        <mxCell id="GVw4IOrGM6bfQ1GFjOSW-14" value="&lt;font style=&quot;font-size: 30px;&quot;&gt;4&lt;/font&gt;" style="rounded=0;whiteSpace=wrap;html=1;" vertex="1" parent="1">
          <mxGeometry x="1227" y="195" width="40" height="30" as="geometry" />
        </mxCell>
        <mxCell id="GVw4IOrGM6bfQ1GFjOSW-16" value="" style="endArrow=classic;html=1;rounded=0;exitX=0.5;exitY=1;exitDx=0;exitDy=0;entryX=0;entryY=0.5;entryDx=0;entryDy=0;" edge="1" parent="1" source="GVw4IOrGM6bfQ1GFjOSW-14" target="GVw4IOrGM6bfQ1GFjOSW-20">
          <mxGeometry width="50" height="50" relative="1" as="geometry">
            <mxPoint x="1237" y="265" as="sourcePoint" />
            <mxPoint x="1247" y="345" as="targetPoint" />
            <Array as="points">
              <mxPoint x="1247" y="305" />
            </Array>
          </mxGeometry>
        </mxCell>
        <mxCell id="GVw4IOrGM6bfQ1GFjOSW-20" value="&lt;font style=&quot;font-size: 30px;&quot;&gt;*&lt;/font&gt;" style="ellipse;whiteSpace=wrap;html=1;aspect=fixed;" vertex="1" parent="1">
          <mxGeometry x="1307" y="265" width="80" height="80" as="geometry" />
        </mxCell>
        <mxCell id="GVw4IOrGM6bfQ1GFjOSW-21" value="" style="endArrow=classic;html=1;rounded=0;exitX=0.5;exitY=1;exitDx=0;exitDy=0;entryX=0.5;entryY=0;entryDx=0;entryDy=0;" edge="1" parent="1" source="GVw4IOrGM6bfQ1GFjOSW-5" target="GVw4IOrGM6bfQ1GFjOSW-20">
          <mxGeometry width="50" height="50" relative="1" as="geometry">
            <mxPoint x="1307" y="195" as="sourcePoint" />
            <mxPoint x="1357" y="145" as="targetPoint" />
          </mxGeometry>
        </mxCell>
        <mxCell id="GVw4IOrGM6bfQ1GFjOSW-22" value="" style="endArrow=classic;html=1;rounded=0;exitX=0.5;exitY=1;exitDx=0;exitDy=0;entryX=1;entryY=0.5;entryDx=0;entryDy=0;" edge="1" parent="1" source="GVw4IOrGM6bfQ1GFjOSW-7" target="GVw4IOrGM6bfQ1GFjOSW-20">
          <mxGeometry width="50" height="50" relative="1" as="geometry">
            <mxPoint x="1447" y="235" as="sourcePoint" />
            <mxPoint x="1497" y="185" as="targetPoint" />
            <Array as="points">
              <mxPoint x="1457" y="305" />
            </Array>
          </mxGeometry>
        </mxCell>
        <mxCell id="GVw4IOrGM6bfQ1GFjOSW-24" value="" style="endArrow=classic;html=1;rounded=0;exitX=0.5;exitY=1;exitDx=0;exitDy=0;entryX=0;entryY=0.5;entryDx=0;entryDy=0;" edge="1" parent="1" source="GVw4IOrGM6bfQ1GFjOSW-3" target="GVw4IOrGM6bfQ1GFjOSW-2">
          <mxGeometry width="50" height="50" relative="1" as="geometry">
            <mxPoint x="1107" y="390" as="sourcePoint" />
            <mxPoint x="1157" y="340" as="targetPoint" />
            <Array as="points">
              <mxPoint x="1137" y="400" />
            </Array>
          </mxGeometry>
        </mxCell>
        <mxCell id="GVw4IOrGM6bfQ1GFjOSW-25" value="" style="endArrow=classic;html=1;rounded=0;exitX=0.5;exitY=1;exitDx=0;exitDy=0;entryX=1;entryY=0.5;entryDx=0;entryDy=0;" edge="1" parent="1" source="GVw4IOrGM6bfQ1GFjOSW-20" target="GVw4IOrGM6bfQ1GFjOSW-2">
          <mxGeometry width="50" height="50" relative="1" as="geometry">
            <mxPoint x="1377" y="450" as="sourcePoint" />
            <mxPoint x="1307" y="400" as="targetPoint" />
            <Array as="points">
              <mxPoint x="1347" y="400" />
            </Array>
          </mxGeometry>
        </mxCell>
        <mxCell id="GVw4IOrGM6bfQ1GFjOSW-27" value="&lt;font style=&quot;font-size: 30px;&quot;&gt;0&lt;/font&gt;" style="rounded=0;whiteSpace=wrap;html=1;" vertex="1" parent="1">
          <mxGeometry x="887" y="290" width="40" height="30" as="geometry" />
        </mxCell>
        <mxCell id="GVw4IOrGM6bfQ1GFjOSW-28" value="&lt;font style=&quot;font-size: 30px;&quot;&gt;-&lt;/font&gt;" style="ellipse;whiteSpace=wrap;html=1;aspect=fixed;" vertex="1" parent="1">
          <mxGeometry x="977" y="265" width="80" height="80" as="geometry" />
        </mxCell>
        <mxCell id="GVw4IOrGM6bfQ1GFjOSW-29" value="" style="endArrow=classic;html=1;rounded=0;exitX=0;exitY=0.5;exitDx=0;exitDy=0;entryX=0.5;entryY=0;entryDx=0;entryDy=0;" edge="1" parent="1" source="GVw4IOrGM6bfQ1GFjOSW-6" target="GVw4IOrGM6bfQ1GFjOSW-28">
          <mxGeometry width="50" height="50" relative="1" as="geometry">
            <mxPoint x="937" y="255" as="sourcePoint" />
            <mxPoint x="987" y="205" as="targetPoint" />
            <Array as="points">
              <mxPoint x="1017" y="210" />
            </Array>
          </mxGeometry>
        </mxCell>
        <mxCell id="GVw4IOrGM6bfQ1GFjOSW-30" value="" style="endArrow=classic;html=1;rounded=0;entryX=0;entryY=0.5;entryDx=0;entryDy=0;exitX=1;exitY=0.5;exitDx=0;exitDy=0;" edge="1" parent="1" source="GVw4IOrGM6bfQ1GFjOSW-27" target="GVw4IOrGM6bfQ1GFjOSW-28">
          <mxGeometry width="50" height="50" relative="1" as="geometry">
            <mxPoint x="937" y="275" as="sourcePoint" />
            <mxPoint x="937" y="315" as="targetPoint" />
            <Array as="points">
              <mxPoint x="947" y="305" />
            </Array>
          </mxGeometry>
        </mxCell>
        <mxCell id="GVw4IOrGM6bfQ1GFjOSW-34" value="&lt;font style=&quot;font-size: 30px;&quot;&gt;*a&lt;/font&gt;" style="ellipse;whiteSpace=wrap;html=1;aspect=fixed;" vertex="1" parent="1">
          <mxGeometry x="997" y="460" width="80" height="80" as="geometry" />
        </mxCell>
        <mxCell id="GVw4IOrGM6bfQ1GFjOSW-35" value="&lt;font style=&quot;font-size: 30px;&quot;&gt;2&lt;/font&gt;" style="rounded=0;whiteSpace=wrap;html=1;" vertex="1" parent="1">
          <mxGeometry x="1107" y="485" width="40" height="30" as="geometry" />
        </mxCell>
        <mxCell id="GVw4IOrGM6bfQ1GFjOSW-37" value="" style="endArrow=classic;html=1;rounded=0;exitX=0;exitY=0.5;exitDx=0;exitDy=0;entryX=1;entryY=0.5;entryDx=0;entryDy=0;" edge="1" parent="1" source="GVw4IOrGM6bfQ1GFjOSW-35" target="GVw4IOrGM6bfQ1GFjOSW-34">
          <mxGeometry width="50" height="50" relative="1" as="geometry">
            <mxPoint x="1037" y="590" as="sourcePoint" />
            <mxPoint x="1087" y="540" as="targetPoint" />
          </mxGeometry>
        </mxCell>
        <mxCell id="GVw4IOrGM6bfQ1GFjOSW-38" value="&lt;font style=&quot;font-size: 30px;&quot;&gt;/&lt;/font&gt;" style="ellipse;whiteSpace=wrap;html=1;aspect=fixed;" vertex="1" parent="1">
          <mxGeometry x="877" y="620" width="80" height="80" as="geometry" />
        </mxCell>
        <mxCell id="GVw4IOrGM6bfQ1GFjOSW-41" value="&lt;font style=&quot;font-size: 30px;&quot;&gt;0&lt;/font&gt;" style="rounded=0;whiteSpace=wrap;html=1;" vertex="1" parent="1">
          <mxGeometry x="1137" y="545" width="40" height="30" as="geometry" />
        </mxCell>
        <mxCell id="GVw4IOrGM6bfQ1GFjOSW-42" value="&lt;font style=&quot;font-size: 30px;&quot;&gt;&amp;gt;&lt;/font&gt;" style="ellipse;whiteSpace=wrap;html=1;aspect=fixed;" vertex="1" parent="1">
          <mxGeometry x="1197" y="540" width="80" height="80" as="geometry" />
        </mxCell>
        <mxCell id="GVw4IOrGM6bfQ1GFjOSW-43" value="" style="endArrow=classic;html=1;rounded=0;exitX=0.5;exitY=1;exitDx=0;exitDy=0;entryX=0.5;entryY=0;entryDx=0;entryDy=0;" edge="1" parent="1" source="GVw4IOrGM6bfQ1GFjOSW-2" target="GVw4IOrGM6bfQ1GFjOSW-42">
          <mxGeometry width="50" height="50" relative="1" as="geometry">
            <mxPoint x="1217" y="580" as="sourcePoint" />
            <mxPoint x="1267" y="530" as="targetPoint" />
            <Array as="points">
              <mxPoint x="1237" y="530" />
            </Array>
          </mxGeometry>
        </mxCell>
        <mxCell id="GVw4IOrGM6bfQ1GFjOSW-50" value="" style="endArrow=none;html=1;rounded=0;" edge="1" parent="1">
          <mxGeometry width="50" height="50" relative="1" as="geometry">
            <mxPoint x="1227" y="790" as="sourcePoint" />
            <mxPoint x="1227" y="680" as="targetPoint" />
          </mxGeometry>
        </mxCell>
        <mxCell id="GVw4IOrGM6bfQ1GFjOSW-51" value="" style="endArrow=none;html=1;rounded=0;" edge="1" parent="1">
          <mxGeometry width="50" height="50" relative="1" as="geometry">
            <mxPoint x="1247" y="770" as="sourcePoint" />
            <mxPoint x="1227" y="790" as="targetPoint" />
          </mxGeometry>
        </mxCell>
        <mxCell id="GVw4IOrGM6bfQ1GFjOSW-52" value="" style="endArrow=none;html=1;rounded=0;" edge="1" parent="1">
          <mxGeometry width="50" height="50" relative="1" as="geometry">
            <mxPoint x="1247" y="700" as="sourcePoint" />
            <mxPoint x="1227" y="680" as="targetPoint" />
          </mxGeometry>
        </mxCell>
        <mxCell id="GVw4IOrGM6bfQ1GFjOSW-53" value="0" style="text;html=1;align=center;verticalAlign=middle;resizable=0;points=[];autosize=1;strokeColor=none;fillColor=none;" vertex="1" parent="1">
          <mxGeometry x="1217" y="690" width="30" height="30" as="geometry" />
        </mxCell>
        <mxCell id="GVw4IOrGM6bfQ1GFjOSW-54" value="1" style="text;html=1;align=center;verticalAlign=middle;resizable=0;points=[];autosize=1;strokeColor=none;fillColor=none;" vertex="1" parent="1">
          <mxGeometry x="1217" y="750" width="30" height="30" as="geometry" />
        </mxCell>
        <mxCell id="GVw4IOrGM6bfQ1GFjOSW-58" value="" style="endArrow=classic;html=1;rounded=0;exitX=0.5;exitY=1;exitDx=0;exitDy=0;" edge="1" parent="1" source="GVw4IOrGM6bfQ1GFjOSW-42">
          <mxGeometry width="50" height="50" relative="1" as="geometry">
            <mxPoint x="1147" y="740" as="sourcePoint" />
            <mxPoint x="1237" y="690" as="targetPoint" />
            <Array as="points">
              <mxPoint x="1237" y="690" />
            </Array>
          </mxGeometry>
        </mxCell>
        <mxCell id="GVw4IOrGM6bfQ1GFjOSW-59" value="" style="endArrow=classic;html=1;rounded=0;exitX=0.5;exitY=1;exitDx=0;exitDy=0;entryX=0;entryY=0.5;entryDx=0;entryDy=0;" edge="1" parent="1" source="GVw4IOrGM6bfQ1GFjOSW-41" target="GVw4IOrGM6bfQ1GFjOSW-42">
          <mxGeometry width="50" height="50" relative="1" as="geometry">
            <mxPoint x="1207" y="650" as="sourcePoint" />
            <mxPoint x="1287" y="610" as="targetPoint" />
            <Array as="points">
              <mxPoint x="1157" y="580" />
            </Array>
          </mxGeometry>
        </mxCell>
        <mxCell id="GVw4IOrGM6bfQ1GFjOSW-60" value="" style="endArrow=none;html=1;rounded=0;" edge="1" parent="1">
          <mxGeometry width="50" height="50" relative="1" as="geometry">
            <mxPoint x="1247" y="770" as="sourcePoint" />
            <mxPoint x="1247" y="700" as="targetPoint" />
          </mxGeometry>
        </mxCell>
        <mxCell id="GVw4IOrGM6bfQ1GFjOSW-62" value="&lt;span style=&quot;font-family: &amp;quot;Google Sans&amp;quot;, Arial, sans-serif; font-size: 18px; text-align: start; background-color: rgb(255, 255, 255);&quot;&gt;√&lt;/span&gt;" style="ellipse;whiteSpace=wrap;html=1;aspect=fixed;" vertex="1" parent="1">
          <mxGeometry x="877" y="420" width="80" height="80" as="geometry" />
        </mxCell>
        <mxCell id="GVw4IOrGM6bfQ1GFjOSW-63" value="" style="endArrow=classic;html=1;rounded=0;exitX=0.5;exitY=1;exitDx=0;exitDy=0;entryX=0.5;entryY=0;entryDx=0;entryDy=0;" edge="1" parent="1" source="GVw4IOrGM6bfQ1GFjOSW-62" target="GVw4IOrGM6bfQ1GFjOSW-1">
          <mxGeometry width="50" height="50" relative="1" as="geometry">
            <mxPoint x="787" y="580" as="sourcePoint" />
            <mxPoint x="837" y="530" as="targetPoint" />
          </mxGeometry>
        </mxCell>
        <mxCell id="GVw4IOrGM6bfQ1GFjOSW-65" value="" style="endArrow=classic;html=1;rounded=0;exitX=0.5;exitY=1;exitDx=0;exitDy=0;entryX=0.5;entryY=0;entryDx=0;entryDy=0;" edge="1" parent="1" source="GVw4IOrGM6bfQ1GFjOSW-1" target="GVw4IOrGM6bfQ1GFjOSW-38">
          <mxGeometry width="50" height="50" relative="1" as="geometry">
            <mxPoint x="787" y="660" as="sourcePoint" />
            <mxPoint x="837" y="610" as="targetPoint" />
          </mxGeometry>
        </mxCell>
        <mxCell id="GVw4IOrGM6bfQ1GFjOSW-66" value="" style="endArrow=classic;html=1;rounded=0;exitX=0.5;exitY=1;exitDx=0;exitDy=0;entryX=1;entryY=0.5;entryDx=0;entryDy=0;" edge="1" parent="1" source="GVw4IOrGM6bfQ1GFjOSW-34" target="GVw4IOrGM6bfQ1GFjOSW-38">
          <mxGeometry width="50" height="50" relative="1" as="geometry">
            <mxPoint x="1007" y="650" as="sourcePoint" />
            <mxPoint x="1057" y="600" as="targetPoint" />
            <Array as="points">
              <mxPoint x="1037" y="660" />
            </Array>
          </mxGeometry>
        </mxCell>
        <mxCell id="GVw4IOrGM6bfQ1GFjOSW-67" value="" style="endArrow=classic;html=1;rounded=0;entryX=0.5;entryY=0;entryDx=0;entryDy=0;" edge="1" parent="1" target="GVw4IOrGM6bfQ1GFjOSW-62">
          <mxGeometry width="50" height="50" relative="1" as="geometry">
            <mxPoint x="1237" y="460" as="sourcePoint" />
            <mxPoint x="1007" y="380" as="targetPoint" />
            <Array as="points">
              <mxPoint x="997" y="460" />
              <mxPoint x="997" y="380" />
              <mxPoint x="917" y="380" />
            </Array>
          </mxGeometry>
        </mxCell>
        <mxCell id="GVw4IOrGM6bfQ1GFjOSW-68" value="" style="endArrow=classic;html=1;rounded=0;exitX=0.5;exitY=1;exitDx=0;exitDy=0;" edge="1" parent="1" source="GVw4IOrGM6bfQ1GFjOSW-38">
          <mxGeometry width="50" height="50" relative="1" as="geometry">
            <mxPoint x="867" y="730" as="sourcePoint" />
            <mxPoint x="1227" y="700" as="targetPoint" />
            <Array as="points" />
          </mxGeometry>
        </mxCell>
        <mxCell id="GVw4IOrGM6bfQ1GFjOSW-69" value="" style="endArrow=classic;html=1;rounded=0;" edge="1" parent="1">
          <mxGeometry width="50" height="50" relative="1" as="geometry">
            <mxPoint x="1247" y="730" as="sourcePoint" />
            <mxPoint x="1487" y="730" as="targetPoint" />
          </mxGeometry>
        </mxCell>
        <mxCell id="GVw4IOrGM6bfQ1GFjOSW-70" value="Dout" style="edgeLabel;html=1;align=center;verticalAlign=middle;resizable=0;points=[];" vertex="1" connectable="0" parent="GVw4IOrGM6bfQ1GFjOSW-69">
          <mxGeometry x="0.0963" relative="1" as="geometry">
            <mxPoint as="offset" />
          </mxGeometry>
        </mxCell>
        <mxCell id="GVw4IOrGM6bfQ1GFjOSW-73" value="" style="endArrow=classic;html=1;rounded=0;" edge="1" parent="1">
          <mxGeometry width="50" height="50" relative="1" as="geometry">
            <mxPoint x="1237" y="460" as="sourcePoint" />
            <mxPoint x="1377" y="460" as="targetPoint" />
          </mxGeometry>
        </mxCell>
        <mxCell id="GVw4IOrGM6bfQ1GFjOSW-74" value="" style="endArrow=classic;html=1;rounded=0;exitX=0.5;exitY=1;exitDx=0;exitDy=0;entryX=0;entryY=0.5;entryDx=0;entryDy=0;" edge="1" parent="1" source="GVw4IOrGM6bfQ1GFjOSW-28" target="GVw4IOrGM6bfQ1GFjOSW-1">
          <mxGeometry width="50" height="50" relative="1" as="geometry">
            <mxPoint x="817" y="420" as="sourcePoint" />
            <mxPoint x="867" y="370" as="targetPoint" />
            <Array as="points">
              <mxPoint x="1017" y="370" />
              <mxPoint x="840" y="370" />
              <mxPoint x="840" y="460" />
              <mxPoint x="840" y="560" />
            </Array>
          </mxGeometry>
        </mxCell>
        <mxCell id="GVw4IOrGM6bfQ1GFjOSW-75" value="&lt;span style=&quot;font-family: &amp;quot;Google Sans&amp;quot;, Arial, sans-serif; font-size: 18px; text-align: start; background-color: rgb(255, 255, 255);&quot;&gt;√&lt;/span&gt;" style="ellipse;whiteSpace=wrap;html=1;aspect=fixed;" vertex="1" parent="1">
          <mxGeometry x="1377" y="420" width="80" height="80" as="geometry" />
        </mxCell>
        <mxCell id="GVw4IOrGM6bfQ1GFjOSW-76" value="" style="endArrow=classic;html=1;rounded=0;entryX=1;entryY=0;entryDx=0;entryDy=0;" edge="1" parent="1" target="GVw4IOrGM6bfQ1GFjOSW-77">
          <mxGeometry width="50" height="50" relative="1" as="geometry">
            <mxPoint x="1017" y="210" as="sourcePoint" />
            <mxPoint x="1587" y="440" as="targetPoint" />
            <Array as="points">
              <mxPoint x="1017" y="150" />
              <mxPoint x="1527" y="150" />
            </Array>
          </mxGeometry>
        </mxCell>
        <mxCell id="GVw4IOrGM6bfQ1GFjOSW-77" value="&lt;font style=&quot;font-size: 30px;&quot;&gt;/&lt;/font&gt;" style="ellipse;whiteSpace=wrap;html=1;aspect=fixed;" vertex="1" parent="1">
          <mxGeometry x="1457" y="550" width="80" height="80" as="geometry" />
        </mxCell>
        <mxCell id="GVw4IOrGM6bfQ1GFjOSW-80" value="&lt;font style=&quot;font-size: 30px;&quot;&gt;*a&lt;/font&gt;" style="ellipse;whiteSpace=wrap;html=1;aspect=fixed;" vertex="1" parent="1">
          <mxGeometry x="1560" y="550" width="80" height="80" as="geometry" />
        </mxCell>
        <mxCell id="GVw4IOrGM6bfQ1GFjOSW-81" value="&lt;font style=&quot;font-size: 30px;&quot;&gt;2&lt;/font&gt;" style="rounded=0;whiteSpace=wrap;html=1;" vertex="1" parent="1">
          <mxGeometry x="1580" y="690" width="40" height="30" as="geometry" />
        </mxCell>
        <mxCell id="GVw4IOrGM6bfQ1GFjOSW-83" value="" style="endArrow=classic;html=1;rounded=0;exitX=0;exitY=0.5;exitDx=0;exitDy=0;entryX=1;entryY=0.5;entryDx=0;entryDy=0;" edge="1" parent="1" source="GVw4IOrGM6bfQ1GFjOSW-80" target="GVw4IOrGM6bfQ1GFjOSW-77">
          <mxGeometry width="50" height="50" relative="1" as="geometry">
            <mxPoint x="1517" y="700" as="sourcePoint" />
            <mxPoint x="1567" y="650" as="targetPoint" />
          </mxGeometry>
        </mxCell>
        <mxCell id="GVw4IOrGM6bfQ1GFjOSW-84" value="" style="endArrow=classic;html=1;rounded=0;entryX=0;entryY=0.5;entryDx=0;entryDy=0;exitX=0.5;exitY=1;exitDx=0;exitDy=0;" edge="1" parent="1" source="GVw4IOrGM6bfQ1GFjOSW-75" target="GVw4IOrGM6bfQ1GFjOSW-77">
          <mxGeometry width="50" height="50" relative="1" as="geometry">
            <mxPoint x="1357" y="630" as="sourcePoint" />
            <mxPoint x="1407" y="580" as="targetPoint" />
            <Array as="points">
              <mxPoint x="1417" y="590" />
            </Array>
          </mxGeometry>
        </mxCell>
        <mxCell id="GVw4IOrGM6bfQ1GFjOSW-85" value="" style="endArrow=classic;html=1;rounded=0;exitX=0.5;exitY=1;exitDx=0;exitDy=0;" edge="1" parent="1" source="GVw4IOrGM6bfQ1GFjOSW-77">
          <mxGeometry width="50" height="50" relative="1" as="geometry">
            <mxPoint x="1577" y="730" as="sourcePoint" />
            <mxPoint x="1227" y="770" as="targetPoint" />
            <Array as="points">
              <mxPoint x="1497" y="820" />
              <mxPoint x="1177" y="820" />
              <mxPoint x="1177" y="770" />
            </Array>
          </mxGeometry>
        </mxCell>
        <mxCell id="GVw4IOrGM6bfQ1GFjOSW-86" value="" style="endArrow=classic;html=1;rounded=0;entryX=0.5;entryY=1;entryDx=0;entryDy=0;exitX=0.5;exitY=0;exitDx=0;exitDy=0;" edge="1" parent="1" source="GVw4IOrGM6bfQ1GFjOSW-81" target="GVw4IOrGM6bfQ1GFjOSW-80">
          <mxGeometry width="50" height="50" relative="1" as="geometry">
            <mxPoint x="1550" y="700" as="sourcePoint" />
            <mxPoint x="1600" y="650" as="targetPoint" />
          </mxGeometry>
        </mxCell>
      </root>
    </mxGraphModel>
  </diagram>
</mxfile>
